<?xml version="1.0" encoding="UTF-8" standalone="no"?><!DOCTYPE svg PUBLIC "-//W3C//DTD SVG 1.1//EN" "http://www.w3.org/Graphics/SVG/1.1/DTD/svg11.dtd"><svg width="100%" height="100%" viewBox="0 0 97 91" version="1.1" xmlns="http://www.w3.org/2000/svg" xmlns:xlink="http://www.w3.org/1999/xlink" xml:space="preserve" style="fill-rule:evenodd;clip-rule:evenodd;stroke-linejoin:round;stroke-miterlimit:1.41421;"><path id="Rectangle.-12" d="M82.194,10.967c-12.002,-19.264 -48.428,-10.15 -68.688,4.382c-20.261,14.532 -16.852,59.595 4.382,68.688c21.234,9.093 50.975,10.154 68.688,-4.383c17.713,-14.536 7.619,-49.424 -4.382,-68.687Z" style="fill:url(#_Linear1);"/><path id="Rectangle.-121" d="M81.163,76.507c-9.572,18.316 -43.273,12.547 -62.669,0.746c-19.396,-11.801 -19.401,-52.952 -0.747,-62.669c18.655,-9.718 45.586,-12.727 62.67,-0.747c17.083,11.981 10.318,44.353 0.746,62.67Z" style="fill:url(#_Linear2);"/><path d="M60.447,73.289l-24.219,0c-2.333,0 -4.234,-1.803 -4.234,-4.016l0,-46.686c0,-2.213 1.901,-4.016 4.234,-4.016l24.219,0c2.333,0 4.234,1.803 4.234,4.016l0,46.686c0,2.213 -1.901,4.016 -4.234,4.016Zm2.315,-10.946l-28.843,0l0,6.93c0,1.206 1.037,2.19 2.309,2.19l24.219,0c1.276,0 2.315,-0.984 2.315,-2.19l0,-6.93Zm-14.422,0.913c-2.122,0 -3.85,1.64 -3.85,3.647c0,2.013 1.728,3.653 3.85,3.653c2.117,0 3.845,-1.64 3.845,-3.653c0,-2.007 -1.728,-3.647 -3.845,-3.647Zm0,5.473c-1.061,0 -1.925,-0.819 -1.925,-1.826c0,-1.001 0.864,-1.82 1.925,-1.82c1.056,0 1.92,0.819 1.92,1.82c0,1.007 -0.864,1.826 -1.92,1.826Zm14.422,-42.865l-28.843,0l0,34.659l28.843,0l0,-34.659Zm-2.315,-5.467l-24.219,0c-1.272,0 -2.309,0.984 -2.309,2.19l0,1.457l28.843,0l0,-1.457c0,-1.206 -1.038,-2.19 -2.315,-2.19Zm-12.107,2.734l-3.85,0c-0.53,0 -0.957,-0.41 -0.957,-0.914c0,-0.502 0.427,-0.913 0.957,-0.913l3.85,0c0.53,0 0.957,0.411 0.957,0.913c0,0.504 -0.426,0.913 -0.957,0.914Zm3.845,0l-0.963,0c-0.53,0 -0.962,-0.41 -0.962,-0.914c0,-0.502 0.432,-0.913 0.962,-0.913l0.963,0c0.53,0 0.963,0.411 0.963,0.913c0,0.504 -0.433,0.913 -0.963,0.914Z" style="fill:#fff;"/><path d="M46.729,52.718c0,0.973 -0.791,1.758 -1.763,1.758c-0.967,0 -1.757,-0.785 -1.757,-1.758c0,-0.967 0.79,-1.756 1.757,-1.756c0.972,0 1.763,0.789 1.763,1.756Zm10.545,0c0,0.973 -0.789,1.758 -1.756,1.758c-0.973,0 -1.764,-0.785 -1.764,-1.758c0,-0.967 0.791,-1.756 1.764,-1.756c0.967,0 1.756,0.789 1.756,1.756Zm-16.404,-19.334c0.571,0 1.058,0.412 1.156,0.979l0.222,1.368l16.2,0c0.337,0 0.657,0.142 0.88,0.4c0.223,0.257 0.327,0.594 0.275,0.933l-1.167,8.204c-0.086,0.579 -0.579,1.008 -1.162,1.008l-13.263,0l0.194,1.173l11.896,0c0.646,0 1.173,0.52 1.173,1.166c0,0.653 -0.527,1.173 -1.173,1.173l-12.892,0c-0.148,0 -0.291,-0.033 -0.429,-0.085c-0.051,-0.017 -0.085,-0.052 -0.132,-0.074c-0.079,-0.046 -0.159,-0.092 -0.228,-0.155c-0.04,-0.04 -0.075,-0.085 -0.109,-0.131c-0.051,-0.069 -0.102,-0.13 -0.143,-0.212c-0.028,-0.057 -0.04,-0.114 -0.063,-0.177c-0.016,-0.046 -0.04,-0.093 -0.051,-0.144l-2.181,-13.079l-1.641,0c-0.648,0 -1.173,-0.528 -1.173,-1.174c0,-0.647 0.525,-1.173 1.173,-1.173l2.638,0Zm10.545,10.545l0,-2.339l-3.52,0l0,2.339l3.52,0Zm-4.686,0l0,-2.339l-3.502,0l0.39,2.339l3.112,0Zm9.526,0l0.338,-2.339l-4.005,0l0,2.339l3.667,0Zm-13.046,-3.512l3.52,0l0,-2.347l-4.087,0l0.394,2.38c0.059,-0.016 0.11,-0.033 0.173,-0.033Zm13.55,0l0.332,-2.347l-4.503,0l0,2.347l4.171,0Zm-5.344,0l0,-2.347l-3.52,0l0,2.347l3.52,0Z" style="fill:#fff;"/><defs><linearGradient id="_Linear1" x1="0" y1="0" x2="1" y2="0" gradientUnits="userSpaceOnUse" gradientTransform="matrix(-95.4907,6.09267,5.754,90.1827,95.445,42.7929)"><stop offset="0" style="stop-color:#8536d6;stop-opacity:0.2"/><stop offset="1" style="stop-color:#3f36d6;stop-opacity:0.2"/></linearGradient><linearGradient id="_Linear2" x1="0" y1="0" x2="1" y2="0" gradientUnits="userSpaceOnUse" gradientTransform="matrix(-87.1236,1.03743,-0.979767,-82.2807,91.0056,46.6969)"><stop offset="0" style="stop-color:#8536d6;stop-opacity:0.7"/><stop offset="1" style="stop-color:#3f36d6;stop-opacity:0.7"/></linearGradient></defs></svg>