<?xml version="1.0" encoding="UTF-8" standalone="no"?><!DOCTYPE svg PUBLIC "-//W3C//DTD SVG 1.1//EN" "http://www.w3.org/Graphics/SVG/1.1/DTD/svg11.dtd"><svg width="100%" height="100%" viewBox="0 0 97 91" version="1.1" xmlns="http://www.w3.org/2000/svg" xmlns:xlink="http://www.w3.org/1999/xlink" xml:space="preserve" style="fill-rule:evenodd;clip-rule:evenodd;stroke-linejoin:round;stroke-miterlimit:1.41421;"><path id="Rectangle.-12" d="M82.194,10.967c-12.002,-19.264 -48.428,-10.15 -68.688,4.382c-20.261,14.532 -16.852,59.595 4.382,68.688c21.234,9.093 50.975,10.154 68.688,-4.383c17.713,-14.536 7.619,-49.424 -4.382,-68.687Z" style="fill:url(#_Linear1);"/><path id="Rectangle.-121" d="M81.163,76.507c-9.572,18.316 -43.273,12.547 -62.669,0.746c-19.396,-11.801 -19.401,-52.952 -0.747,-62.669c18.655,-9.718 45.586,-12.727 62.67,-0.747c17.083,11.981 10.318,44.353 0.746,62.67Z" style="fill:url(#_Linear2);"/><g><path d="M70.932,54.989l-44.893,0c-1.409,0 -2.554,-1.145 -2.554,-2.553l0,-24.139c0,-1.408 1.145,-2.553 2.554,-2.553l44.893,0c1.408,0 2.553,1.145 2.553,2.553l0,24.139c0,1.408 -1.145,2.553 -2.553,2.553Zm-44.893,-27.183c-0.271,0 -0.492,0.22 -0.492,0.491l0,24.139c0,0.271 0.221,0.491 0.492,0.491l44.893,0c0.271,0 0.491,-0.22 0.491,-0.491l0,-24.139c0,-0.271 -0.22,-0.491 -0.491,-0.491l-44.893,0Z" style="fill:#fff;fill-rule:nonzero;"/><path d="M43.147,48.201c-0.338,-0.184 -0.559,-0.53 -0.559,-0.915l0,-13.839c0,-0.386 0.216,-0.739 0.559,-0.916c0.343,-0.177 0.756,-0.148 1.07,0.076l9.731,6.919c0.272,0.193 0.433,0.507 0.433,0.84c0,0.334 -0.161,0.647 -0.433,0.841c0,0 -7.298,5.189 -9.731,6.919c-0.177,0.126 -0.56,0.355 -1.07,0.075Zm1.504,-12.756l0,9.842l6.92,-4.921l-6.92,-4.921Z" style="fill:#fff;fill-rule:nonzero;"/><path d="M72.454,60.841l-19.707,0c-0.458,-1.753 -2.055,-3.05 -3.949,-3.05c-1.894,0 -3.491,1.297 -3.949,3.05l-20.333,0c-0.569,0 -1.031,0.462 -1.031,1.031c0,0.57 0.462,1.031 1.031,1.031l20.333,0c0.458,1.754 2.055,3.051 3.949,3.051c1.894,0 3.492,-1.297 3.949,-3.051l19.707,0c0.569,0 1.031,-0.461 1.031,-1.031c0,-0.569 -0.462,-1.031 -1.031,-1.031Zm-23.656,3.051c-1.113,0 -2.019,-0.906 -2.019,-2.02c0,-1.113 0.906,-2.019 2.019,-2.019c1.114,0 2.019,0.906 2.019,2.019c0,1.114 -0.905,2.02 -2.019,2.02Z" style="fill:#fff;fill-rule:nonzero;"/></g><defs><linearGradient id="_Linear1" x1="0" y1="0" x2="1" y2="0" gradientUnits="userSpaceOnUse" gradientTransform="matrix(-95.4907,6.09267,5.754,90.1827,95.445,42.7929)"><stop offset="0" style="stop-color:#8536d6;stop-opacity:0.2"/><stop offset="1" style="stop-color:#3f36d6;stop-opacity:0.2"/></linearGradient><linearGradient id="_Linear2" x1="0" y1="0" x2="1" y2="0" gradientUnits="userSpaceOnUse" gradientTransform="matrix(-87.1236,1.03743,-0.979767,-82.2807,91.0056,46.6969)"><stop offset="0" style="stop-color:#8536d6;stop-opacity:0.7"/><stop offset="1" style="stop-color:#3f36d6;stop-opacity:0.7"/></linearGradient></defs></svg>