<?xml version="1.0" encoding="UTF-8" standalone="no"?><!DOCTYPE svg PUBLIC "-//W3C//DTD SVG 1.1//EN" "http://www.w3.org/Graphics/SVG/1.1/DTD/svg11.dtd"><svg width="100%" height="100%" viewBox="0 0 97 91" version="1.1" xmlns="http://www.w3.org/2000/svg" xmlns:xlink="http://www.w3.org/1999/xlink" xml:space="preserve" style="fill-rule:evenodd;clip-rule:evenodd;stroke-linejoin:round;stroke-miterlimit:1.41421;"><path id="Rectangle.-12" d="M82.194,10.967c-12.002,-19.264 -48.428,-10.15 -68.688,4.382c-20.261,14.532 -16.852,59.595 4.382,68.688c21.234,9.093 50.975,10.154 68.688,-4.383c17.713,-14.536 7.619,-49.424 -4.382,-68.687Z" style="fill:url(#_Linear1);"/><path id="Rectangle.-121" d="M81.163,76.507c-9.572,18.316 -43.273,12.547 -62.669,0.746c-19.396,-11.801 -19.401,-52.952 -0.747,-62.669c18.655,-9.718 45.586,-12.727 62.67,-0.747c17.083,11.981 10.318,44.353 0.746,62.67Z" style="fill:url(#_Linear2);"/><path d="M51.122,16.713c1.334,0 2.419,1.086 2.419,2.42l0,4.839c0,1.334 -1.085,2.419 -2.419,2.419l-1.613,0l0,4.838l8.871,0c1.334,0 2.419,1.086 2.419,2.419l0,0.474l3.412,-2.773c-0.119,-0.285 -0.186,-0.598 -0.186,-0.926l0,-4.839c0,-1.334 1.085,-2.419 2.419,-2.419l4.839,0c1.334,0 2.42,1.085 2.42,2.419l0,4.839c0,1.334 -1.086,2.419 -2.42,2.419l-4.839,0c-0.415,0 -0.8,-0.114 -1.142,-0.299l-4.503,3.657l0,7.933l3.226,0l0,-1.613c0,-1.334 1.085,-2.419 2.419,-2.419l4.839,0c1.334,0 2.42,1.085 2.42,2.419l0,4.838c0,1.334 -1.086,2.419 -2.42,2.419l-4.839,0c-1.334,0 -2.419,-1.085 -2.419,-2.419l0,-1.613l-3.226,0l0,23.549c0,1.334 -1.085,2.419 -2.419,2.419l-19.355,0c-1.333,0 -2.419,-1.085 -2.419,-2.419l0,-23.549l-3.226,0l0,1.613c0,1.334 -1.085,2.419 -2.419,2.419l-4.839,0c-1.334,0 -2.419,-1.085 -2.419,-2.419l0,-4.838c0,-1.334 1.085,-2.419 2.419,-2.419l4.839,0c1.334,0 2.419,1.085 2.419,2.419l0,1.613l3.226,0l0,-7.933l-4.503,-3.657c-0.341,0.185 -0.727,0.299 -1.142,0.299l-4.839,0c-1.334,0 -2.419,-1.085 -2.419,-2.419l0,-4.839c0,-1.334 1.085,-2.419 2.419,-2.419l4.839,0c1.334,0 2.419,1.085 2.419,2.419l0,4.839c0,0.328 -0.067,0.641 -0.186,0.926l3.412,2.773l0,-0.474c0,-1.333 1.086,-2.419 2.419,-2.419l8.871,0l0,-4.838l-1.613,0c-1.334,0 -2.419,-1.085 -2.419,-2.419l0,-4.839c0,-1.334 1.085,-2.42 2.419,-2.42l4.839,0Zm7.258,53.387c0.445,0 0.807,-0.361 0.807,-0.806l0,-4.032l-20.968,0l0,4.032c0,0.445 0.361,0.806 0.806,0.806l19.355,0Zm-5.645,-1.613l-8.065,0l0,-1.613l8.065,0l0,1.613Zm6.452,-4.838l0,-17.904l-4.088,0c-0.399,3.178 -3.113,5.646 -6.397,5.646c-3.283,0 -5.996,-2.468 -6.395,-5.646l-4.088,0l0,17.904l20.968,0Zm-6.452,-8.452c1.334,0 2.419,1.086 2.419,2.42c0,1.333 -1.085,2.419 -2.419,2.419l-8.065,0c-1.334,0 -2.419,-1.086 -2.419,-2.419c0,-1.334 1.085,-2.42 2.419,-2.42l8.065,0Zm0,3.226c0.445,0 0.806,-0.362 0.806,-0.806c0,-0.446 -0.361,-0.807 -0.806,-0.807l-8.065,0c-0.445,0 -0.806,0.361 -0.806,0.807c0,0.445 0.361,0.806 0.806,0.806l8.065,0Zm-4.033,-18.322c2.669,0 4.839,2.17 4.839,4.838c0,2.668 -2.17,4.838 -4.839,4.838c-2.668,0 -4.838,-2.17 -4.838,-4.838c0,-2.668 2.17,-4.838 4.838,-4.838Zm22.581,8.064c0.445,0 0.807,-0.361 0.807,-0.807l0,-4.838c0,-0.446 -0.362,-0.807 -0.807,-0.807l-4.839,0c-0.445,0 -0.806,0.361 -0.806,0.807l0,4.838c0,0.446 0.361,0.807 0.806,0.807l4.839,0Zm-40.322,0c0.445,0 0.806,-0.361 0.806,-0.807l0,-4.838c0,-0.446 -0.361,-0.807 -0.806,-0.807l-4.839,0c-0.445,0 -0.806,0.361 -0.806,0.807l0,4.838c0,0.446 0.361,0.807 0.806,0.807l4.839,0Zm38.709,-2.42l-1.613,0l0,-1.612l1.613,0l0,1.612Zm-40.322,0l-1.613,0l0,-1.612l1.613,0l0,1.612Zm12.959,-1.612c0.117,-0.932 0.434,-1.8 0.905,-2.565l-4.993,-4.057l0,6.622l4.088,0Zm16.88,0l0,-6.622l-4.994,4.057c0.472,0.765 0.789,1.633 0.906,2.565l4.088,0Zm-9.678,-7.258l7.902,0l-4.226,3.433c-0.979,-0.947 -2.256,-1.586 -3.676,-1.764l0,-1.669Zm-9.514,0l7.901,0l0,1.668c-1.419,0.178 -2.696,0.817 -3.676,1.765l-4.225,-3.433Zm7.901,-1.613l0,-2.42l-8.871,0c-0.445,0 -0.806,0.362 -0.806,0.806l0,1.614l9.677,0Zm11.291,0l0,-1.614c0,-0.444 -0.362,-0.806 -0.807,-0.806l-8.871,0l0,2.42l9.678,0Zm12.096,-4.033c0.445,0 0.807,-0.361 0.807,-0.806l0,-4.839c0,-0.445 -0.362,-0.806 -0.807,-0.806l-4.839,0c-0.445,0 -0.806,0.361 -0.806,0.806l0,4.839c0,0.445 0.361,0.806 0.806,0.806l4.839,0Zm-40.322,0c0.445,0 0.806,-0.361 0.806,-0.806l0,-4.839c0,-0.445 -0.361,-0.806 -0.806,-0.806l-4.839,0c-0.445,0 -0.806,0.361 -0.806,0.806l0,4.839c0,0.445 0.361,0.806 0.806,0.806l4.839,0Zm-1.613,-2.419l-1.613,0l0,-1.613l1.613,0l0,1.613Zm40.322,0l-1.613,0l0,-1.613l1.613,0l0,1.613Zm-18.548,-4.032c0.445,0 0.806,-0.361 0.806,-0.806l0,-4.839c0,-0.445 -0.361,-0.807 -0.806,-0.807l-4.839,0c-0.445,0 -0.806,0.362 -0.806,0.807l0,4.839c0,0.445 0.361,0.806 0.806,0.806l4.839,0Zm-1.613,-2.419l-1.613,0l0,-1.613l1.613,0l0,1.613Z" style="fill:#fff;"/><defs><linearGradient id="_Linear1" x1="0" y1="0" x2="1" y2="0" gradientUnits="userSpaceOnUse" gradientTransform="matrix(-95.4907,6.09267,5.754,90.1827,95.445,42.7929)"><stop offset="0" style="stop-color:#8536d6;stop-opacity:0.2"/><stop offset="1" style="stop-color:#3f36d6;stop-opacity:0.2"/></linearGradient><linearGradient id="_Linear2" x1="0" y1="0" x2="1" y2="0" gradientUnits="userSpaceOnUse" gradientTransform="matrix(-87.1236,1.03743,-0.979767,-82.2807,91.0056,46.6969)"><stop offset="0" style="stop-color:#8536d6;stop-opacity:0.7"/><stop offset="1" style="stop-color:#3f36d6;stop-opacity:0.7"/></linearGradient></defs></svg>