<?xml version="1.0" encoding="UTF-8" standalone="no"?><!DOCTYPE svg PUBLIC "-//W3C//DTD SVG 1.1//EN" "http://www.w3.org/Graphics/SVG/1.1/DTD/svg11.dtd"><svg width="100%" height="100%" viewBox="0 0 97 91" version="1.1" xmlns="http://www.w3.org/2000/svg" xmlns:xlink="http://www.w3.org/1999/xlink" xml:space="preserve" style="fill-rule:evenodd;clip-rule:evenodd;stroke-linejoin:round;stroke-miterlimit:1.41421;"><path id="Rectangle.-12" d="M82.194,10.967c-12.002,-19.264 -48.428,-10.15 -68.688,4.382c-20.261,14.532 -16.852,59.595 4.382,68.688c21.234,9.093 50.975,10.154 68.688,-4.383c17.713,-14.536 7.619,-49.424 -4.382,-68.687Z" style="fill:url(#_Linear1);"/><path id="Rectangle.-121" d="M81.163,76.507c-9.572,18.316 -43.273,12.547 -62.669,0.746c-19.396,-11.801 -19.401,-52.952 -0.747,-62.669c18.655,-9.718 45.586,-12.727 62.67,-0.747c17.083,11.981 10.318,44.353 0.746,62.67Z" style="fill:url(#_Linear2);"/><g><path d="M74.03,43.571l-6.18,-6.183l-13.407,13.404l-3.585,10.848l10.734,-3.698l13.405,-13.404l-0.967,-0.967Zm-21.049,15.907l1.986,-6.332l4.284,4.298l-6.27,2.034Z" style="fill:#fff;fill-rule:nonzero;"/><path d="M78.711,40.071l-6.397,-6.395c-0.218,-0.205 -0.547,-0.205 -0.752,0l-2.543,2.556c-0.215,0.202 -0.215,0.534 0,0.749l6.398,6.397c0.201,0.206 0.534,0.206 0.748,0l2.546,-2.555c0.202,-0.205 0.202,-0.534 0,-0.752Z" style="fill:#fff;fill-rule:nonzero;"/><path d="M27.66,51.85l0,-21.57l32.939,0l0,9.641l3.002,-3.002l0,-9.488c0,-0.433 -0.355,-0.791 -0.801,-0.791l-38.015,0c-0.446,0 -0.801,0.358 -0.801,0.791l0,32.9c0,0.434 0.355,0.788 0.801,0.788l23.859,0l3.09,-9.269l-24.074,0Z" style="fill:#fff;fill-rule:nonzero;"/><path d="M37.962,46.165c-5.763,-11.561 -9.589,3.09 -9.589,3.09l23.351,0c-6.652,-17.347 -11.688,-8.458 -13.762,-3.09Z" style="fill:#fff;fill-rule:nonzero;"/><path d="M55.664,35.2c0,1.794 -1.449,3.243 -3.23,3.243c-1.794,0 -3.243,-1.449 -3.243,-3.243c0,-1.778 1.449,-3.23 3.243,-3.23c1.781,0 3.23,1.452 3.23,3.23Z" style="fill:#fff;fill-rule:nonzero;"/></g><defs><linearGradient id="_Linear1" x1="0" y1="0" x2="1" y2="0" gradientUnits="userSpaceOnUse" gradientTransform="matrix(-95.4907,6.09267,5.754,90.1827,95.445,42.7929)"><stop offset="0" style="stop-color:#8536d6;stop-opacity:0.2"/><stop offset="1" style="stop-color:#3f36d6;stop-opacity:0.2"/></linearGradient><linearGradient id="_Linear2" x1="0" y1="0" x2="1" y2="0" gradientUnits="userSpaceOnUse" gradientTransform="matrix(-87.1236,1.03743,-0.979767,-82.2807,91.0056,46.6969)"><stop offset="0" style="stop-color:#8536d6;stop-opacity:0.7"/><stop offset="1" style="stop-color:#3f36d6;stop-opacity:0.7"/></linearGradient></defs></svg>